<svg width="32" height="32" viewBox="0 0 32 32" fill="none" xmlns="http://www.w3.org/2000/svg">
<path d="M12.5327 18.666L15.9993 15.1993L19.466 18.666L21.3327 16.7993L17.866 13.3327L21.3327 9.86602L19.466 7.99935L15.9993 11.466L12.5327 7.99935L10.666 9.86602L14.1327 13.3327L10.666 16.7993L12.5327 18.666ZM2.66602 29.3327V5.33268C2.66602 4.59935 2.92735 3.97179 3.45002 3.45002C3.97268 2.92824 4.60024 2.6669 5.33268 2.66602H26.666C27.3993 2.66602 28.0273 2.92735 28.55 3.45002C29.0727 3.97268 29.3336 4.60024 29.3327 5.33268V21.3327C29.3327 22.066 29.0718 22.694 28.55 23.2167C28.0282 23.7393 27.4002 24.0002 26.666 23.9993H7.99935L2.66602 29.3327ZM6.86602 21.3327H26.666V5.33268H5.33268V22.8327L6.86602 21.3327Z" fill="#C1473F"/>
</svg>
