<svg width="18" height="18" viewBox="0 0 20 20" fill="none" xmlns="http://www.w3.org/2000/svg">
<path d="M11.0113 8.15513C10.7489 7.89271 10.4374 7.68453 10.0946 7.5425C9.75183 7.40047 9.3844 7.32737 9.01334 7.32737C8.64227 7.32737 8.27484 7.40047 7.93203 7.5425C7.58923 7.68453 7.27776 7.89271 7.01542 8.15513L4.16125 11.0101C3.63148 11.54 3.33391 12.2586 3.33398 13.0079C3.33406 13.7572 3.63179 14.4758 4.16167 15.0056C4.69155 15.5353 5.41018 15.8329 6.15947 15.8328C6.90875 15.8327 7.62732 15.535 8.15709 15.0051L8.42459 14.7518M8.15709 11.0101C8.41943 11.2726 8.73089 11.4807 9.0737 11.6228C9.41651 11.7648 9.78394 11.8379 10.155 11.8379C10.5261 11.8379 10.8935 11.7648 11.2363 11.6228C11.5791 11.4807 11.8906 11.2726 12.1529 11.0101L15.0063 8.15513C15.5361 7.62536 15.8339 6.9068 15.8339 6.15751C15.834 5.40823 15.5364 4.6896 15.0067 4.15972C14.4769 3.62984 13.7583 3.33211 13.009 3.33203C12.2598 3.33195 11.5411 3.62953 11.0113 4.1593L10.1546 4.96013" stroke="#757575" stroke-width="1.5" stroke-linecap="round" stroke-linejoin="round"/>
</svg>
