<svg width="26" height="25" viewBox="0 0 26 25" fill="none" xmlns="http://www.w3.org/2000/svg">
<path d="M14.2501 8V18C14.2501 18.9946 13.855 19.9484 13.1518 20.6517C12.4485 21.3549 11.4947 21.75 10.5001 21.75H7.78762C7.49274 22.5844 6.91238 23.2876 6.14911 23.7355C5.38585 24.1833 4.48884 24.3469 3.61664 24.1973C2.74443 24.0477 1.95319 23.5945 1.38278 22.918C0.812368 22.2414 0.499512 21.3849 0.499512 20.5C0.499512 19.6151 0.812368 18.7586 1.38278 18.082C1.95319 17.4055 2.74443 16.9523 3.61664 16.8027C4.48884 16.6531 5.38585 16.8167 6.14911 17.2645C6.91238 17.7124 7.49274 18.4156 7.78762 19.25H10.5001C10.8316 19.25 11.1496 19.1183 11.384 18.8839C11.6184 18.6495 11.7501 18.3315 11.7501 18V8C11.7501 7.00544 12.1452 6.05161 12.8485 5.34835C13.5517 4.64509 14.5056 4.25 15.5001 4.25H19.2501V0.5L25.5001 5.5L19.2501 10.5V6.75H15.5001C15.1686 6.75 14.8507 6.8817 14.6162 7.11612C14.3818 7.35054 14.2501 7.66848 14.2501 8ZM4.25012 21.75C4.58164 21.75 4.89958 21.6183 5.134 21.3839C5.36843 21.1495 5.50012 20.8315 5.50012 20.5C5.50012 20.1685 5.36843 19.8505 5.134 19.6161C4.89958 19.3817 4.58164 19.25 4.25012 19.25C3.9186 19.25 3.60066 19.3817 3.36624 19.6161C3.13182 19.8505 3.00012 20.1685 3.00012 20.5C3.00012 20.8315 3.13182 21.1495 3.36624 21.3839C3.60066 21.6183 3.9186 21.75 4.25012 21.75Z" fill="white"/>
</svg>
