<svg width="24" height="24" viewBox="0 0 24 24" fill="none" xmlns="http://www.w3.org/2000/svg">
<path fill-rule="evenodd" clip-rule="evenodd" d="M14.4551 2.47474C13.5127 2.09613 12.4955 1.94061 11.483 2.02032C10.4705 2.10003 9.49019 2.41282 8.61865 2.93424C7.7471 3.45565 7.00795 4.17157 6.45898 5.02602C5.91 5.88048 5.56607 6.85032 5.45408 7.85974L5.20208 10.1257L5.19608 10.1797C5.08327 11.163 4.76323 12.1112 4.25708 12.9617L4.22908 13.0087L3.65108 13.9717L3.62708 14.0117C3.38508 14.4147 3.16708 14.7797 3.02108 15.0887C2.87308 15.4027 2.71408 15.8287 2.79108 16.3127C2.86619 16.7902 3.11166 17.2243 3.48208 17.5347C3.85808 17.8487 4.30408 17.9317 4.65008 17.9667C4.99008 18.0007 5.41608 18.0007 5.88508 18.0007H18.1151C18.5841 18.0007 19.0091 18.0007 19.3501 17.9667C19.6951 17.9317 20.1421 17.8487 20.5171 17.5347C20.8879 17.2244 21.1337 16.7903 21.2091 16.3127C21.2861 15.8297 21.1271 15.4027 20.9791 15.0887C20.8331 14.7787 20.6151 14.4147 20.3731 14.0117L20.3491 13.9717L19.7711 13.0087L19.7431 12.9617C19.365 12.3267 19.09 11.6358 18.9281 10.9147C18.2509 11.0418 17.5548 11.0282 16.8831 10.8747C17.0677 11.9731 17.4546 13.0276 18.0241 13.9847L18.0561 14.0377L18.6341 15.0007C18.9071 15.4567 19.0721 15.7337 19.1701 15.9407L19.1841 15.9727C19.1724 15.9742 19.1608 15.9755 19.1491 15.9767C18.9221 15.9997 18.5991 16.0007 18.0681 16.0007H5.93208C5.40108 16.0007 5.07808 15.9997 4.85008 15.9767C4.83873 15.9755 4.8274 15.9742 4.81608 15.9727L4.83008 15.9407C4.92808 15.7337 5.09308 15.4567 5.36608 15.0007L5.94408 14.0377L5.97608 13.9847C6.62677 12.8911 7.03815 11.672 7.18308 10.4077L7.19008 10.3477L7.44208 8.08074C7.51632 7.41115 7.73718 6.76615 8.08894 6.19159C8.4407 5.61703 8.91473 5.12703 9.47732 4.75642C10.0399 4.38582 10.6772 4.14371 11.344 4.04733C12.0108 3.95094 12.6906 4.00263 13.3351 4.19874C13.5851 3.55275 13.9664 2.96569 14.4551 2.47474ZM16.9821 4.27874C16.6204 4.49253 16.3352 4.81482 16.167 5.19984C15.9988 5.58487 15.9562 6.01309 16.0451 6.42374C16.1651 6.64874 16.2671 6.88474 16.3501 7.13074C16.5872 7.47786 16.9277 7.74137 17.3232 7.88374C17.7188 8.02612 18.1491 8.04011 18.5531 7.92374L18.5461 7.85974C18.4004 6.53497 17.8549 5.28595 16.9821 4.27874Z" fill="#757575"/>
<path d="M9.10205 17.6641C9.27305 18.6211 9.65005 19.4661 10.1741 20.0691C10.6981 20.6721 11.3401 20.9991 12.0001 20.9991C12.6601 20.9991 13.3021 20.6721 13.8261 20.0691C14.3501 19.4661 14.7261 18.6211 14.8981 17.6641" stroke="#757575" stroke-width="2" stroke-linecap="round"/>
<path d="M18 8.5C19.3807 8.5 20.5 7.38071 20.5 6C20.5 4.61929 19.3807 3.5 18 3.5C16.6193 3.5 15.5 4.61929 15.5 6C15.5 7.38071 16.6193 8.5 18 8.5Z" fill="#757575"/>
</svg>
