<svg  width='64' viewBox="0 0 64 19"  fill="none" xmlns="http://www.w3.org/2000/svg">
<path d="M0.570312 18V1.03125H6.94531C10.8359 1.03125 12.9219 3.21094 12.9219 6.44531C12.9219 8.75391 11.8672 10.4648 9.875 11.2734L13.5312 18H10.1328L6.80469 11.7891H3.61719V18H0.570312ZM3.61719 9.23438H6.47656C8.77344 9.23438 9.80469 8.25 9.80469 6.44531C9.80469 4.64062 8.77344 3.58594 6.47656 3.58594H3.61719V9.23438ZM30.6875 9.51562C30.6875 15 27.3594 18.2344 22.9062 18.2344C18.4531 18.2344 15.125 14.9766 15.125 9.51562C15.125 4.03125 18.4531 0.796875 22.9062 0.796875C27.3594 0.796875 30.6875 4.03125 30.6875 9.51562ZM27.6172 9.51562C27.6172 5.64844 25.6719 3.53906 22.9062 3.53906C20.1406 3.53906 18.1953 5.64844 18.1953 9.51562C18.1953 13.3828 20.1406 15.4922 22.9062 15.4922C25.6719 15.4922 27.6172 13.3828 27.6172 9.51562ZM34.6484 18H31.3906L37.3672 1.03125H41.1172L47.1172 18H43.8594L42.4531 13.8047H36.0547L34.6484 18ZM36.875 11.3438H41.6328L39.3125 4.5H39.1719L36.875 11.3438ZM54.8984 18H49.1328V1.03125H54.9922C60.0547 1.03125 63.125 4.21875 63.125 9.49219C63.125 14.7891 60.0547 18 54.8984 18ZM52.1797 15.3516H54.7344C58.2734 15.3516 60.0781 13.4062 60.0781 9.49219C60.0781 5.60156 58.2734 3.67969 54.8281 3.67969H52.1797V15.3516Z" fill="black"/>
</svg>
