<svg width="32" height="32" viewBox="0 0 32 32" fill="none" xmlns="http://www.w3.org/2000/svg">
<path d="M17.234 10.9671L23.8673 4.36714C24.1118 4.1227 24.4175 3.9947 24.7847 3.98314C25.1518 3.97158 25.4682 4.09958 25.734 4.36714C25.9784 4.61158 26.1007 4.92269 26.1007 5.30047C26.1007 5.67825 25.9784 5.98936 25.734 6.23381L18.1673 13.8005C17.9007 14.0671 17.5895 14.2005 17.234 14.2005C16.8784 14.2005 16.5673 14.0671 16.3007 13.8005L12.5007 10.0005C12.234 9.73381 12.106 9.4227 12.1167 9.06714C12.1273 8.71158 12.2664 8.40047 12.534 8.13381C12.8007 7.88936 13.1118 7.76136 13.4673 7.74981C13.8229 7.73825 14.134 7.86625 14.4007 8.13381L17.234 10.9671ZM18.6007 27.2005L26.534 24.7338C26.4229 24.5338 26.262 24.3614 26.0513 24.2165C25.8407 24.0716 25.6015 23.9996 25.334 24.0005H18.6007C18.0007 24.0005 17.5229 23.9783 17.1673 23.9338C16.8118 23.8894 16.4451 23.8005 16.0673 23.6671L14.1673 23.0338C13.8118 22.9227 13.5562 22.7005 13.4007 22.3671C13.2451 22.0338 13.2229 21.6894 13.334 21.3338C13.4451 20.9783 13.662 20.7169 13.9847 20.5498C14.3073 20.3827 14.646 20.3551 15.0007 20.4671L16.4007 20.9338C16.7784 21.0449 17.2064 21.1338 17.6847 21.2005C18.1629 21.2671 18.8127 21.3116 19.634 21.3338H20.0007C20.0007 21.0894 19.9287 20.856 19.7847 20.6338C19.6407 20.4116 19.4682 20.2671 19.2673 20.2005L11.4673 17.3338H9.33398V24.6671L18.6007 27.2005ZM17.9007 29.8005L9.33398 27.4005C9.15621 27.9783 8.80598 28.4449 8.28332 28.8005C7.76065 29.156 7.22198 29.3338 6.66732 29.3338H4.00065C3.26732 29.3338 2.63976 29.0729 2.11798 28.5511C1.59621 28.0294 1.33487 27.4014 1.33398 26.6671V17.3338C1.33398 16.6005 1.59532 15.9729 2.11798 15.4511C2.64065 14.9294 3.26821 14.668 4.00065 14.6671H11.4673C11.6229 14.6671 11.7784 14.684 11.934 14.7178C12.0895 14.7516 12.234 14.7903 12.3673 14.8338L20.2007 17.7338C20.934 18.0005 21.5287 18.4671 21.9847 19.1338C22.4407 19.8005 22.6682 20.5338 22.6673 21.3338H25.334C26.4451 21.3338 27.3895 21.7005 28.1673 22.4338C28.9451 23.1671 29.334 24.1338 29.334 25.3338C29.334 25.8227 29.206 26.2063 28.95 26.4845C28.694 26.7627 28.2998 26.9903 27.7673 27.1671L19.434 29.7671C19.1895 29.856 18.934 29.9005 18.6673 29.9005C18.4007 29.9005 18.1451 29.8671 17.9007 29.8005ZM4.00065 26.6671H6.66732V17.3338H4.00065V26.6671Z" fill="#1F62E4"/>
</svg>
