<svg width="12" height="13" viewBox="0 0 12 13" fill="none" xmlns="http://www.w3.org/2000/svg">
<path d="M2.4997 2.00029L2.4997 11.0003C2.49999 11.0914 2.52512 11.1807 2.57239 11.2586C2.61966 11.3365 2.68729 11.4001 2.76798 11.4424C2.84867 11.4847 2.93938 11.5042 3.03034 11.4988C3.12131 11.4934 3.20907 11.4634 3.2842 11.4118L9.7842 6.91179C10.0537 6.72529 10.0537 6.27629 9.7842 6.08929L3.2842 1.58929C3.20923 1.5372 3.12142 1.50665 3.03031 1.50097C2.93919 1.49528 2.84826 1.51468 2.7674 1.55704C2.68654 1.59941 2.61883 1.66312 2.57163 1.74127C2.52444 1.81941 2.49956 1.909 2.4997 2.00029Z" fill="#1E59CC"/>
</svg>
