<svg width="46" height="45" viewBox="0 0 46 45" fill="none" xmlns="http://www.w3.org/2000/svg">
<path d="M30.0936 17.4013L24.868 22.625L30.0936 27.8487C30.241 27.9961 30.358 28.1711 30.4377 28.3637C30.5175 28.5563 30.5586 28.7627 30.5586 28.9711C30.5586 29.1796 30.5175 29.386 30.4377 29.5786C30.358 29.7712 30.241 29.9462 30.0936 30.0936C29.9462 30.241 29.7712 30.358 29.5786 30.4377C29.386 30.5175 29.1796 30.5586 28.9712 30.5586C28.7627 30.5586 28.5563 30.5175 28.3637 30.4377C28.1711 30.358 27.9961 30.241 27.8487 30.0936L22.625 24.868L17.4013 30.0936C17.2539 30.241 17.0789 30.358 16.8863 30.4377C16.6937 30.5175 16.4873 30.5586 16.2789 30.5586C16.0704 30.5586 15.864 30.5175 15.6714 30.4377C15.4788 30.358 15.3038 30.241 15.1564 30.0936C15.009 29.9462 14.892 29.7712 14.8123 29.5786C14.7325 29.386 14.6914 29.1796 14.6914 28.9711C14.6914 28.7627 14.7325 28.5563 14.8123 28.3637C14.892 28.1711 15.009 27.9961 15.1564 27.8487L20.382 22.625L15.1564 17.4013C14.8587 17.1036 14.6914 16.6999 14.6914 16.2788C14.6914 15.8578 14.8587 15.4541 15.1564 15.1564C15.4541 14.8587 15.8578 14.6914 16.2789 14.6914C16.6999 14.6914 17.1036 14.8587 17.4013 15.1564L22.625 20.382L27.8487 15.1564C27.9961 15.009 28.1711 14.892 28.3637 14.8123C28.5563 14.7325 28.7627 14.6914 28.9712 14.6914C29.1796 14.6914 29.386 14.7325 29.5786 14.8123C29.7712 14.892 29.9462 15.009 30.0936 15.1564C30.241 15.3038 30.358 15.4788 30.4377 15.6714C30.5175 15.864 30.5586 16.0704 30.5586 16.2788C30.5586 16.4873 30.5175 16.6937 30.4377 16.8863C30.358 17.0789 30.241 17.2539 30.0936 17.4013ZM43.25 22.625C43.25 26.7042 42.0404 30.6919 39.7741 34.0836C37.5078 37.4754 34.2866 40.1189 30.5178 41.68C26.7491 43.2411 22.6021 43.6495 18.6013 42.8537C14.6004 42.0579 10.9254 40.0935 8.04093 37.2091C5.15647 34.3246 3.19213 30.6496 2.39631 26.6487C1.60049 22.6479 2.00894 18.5009 3.56999 14.7322C5.13105 10.9634 7.77461 7.74224 11.1664 5.47594C14.5581 3.20963 18.5458 2 22.625 2C28.0933 2.00577 33.336 4.18061 37.2027 8.0473C41.0694 11.914 43.2442 17.1567 43.25 22.625ZM40.0769 22.625C40.0769 19.1733 39.0534 15.7992 37.1357 12.9292C35.2181 10.0593 32.4925 7.82242 29.3036 6.50152C26.1146 5.18063 22.6056 4.83502 19.2203 5.50841C15.835 6.1818 12.7253 7.84393 10.2846 10.2846C7.84394 12.7253 6.18181 15.835 5.50842 19.2203C4.83503 22.6056 5.18064 26.1146 6.50153 29.3036C7.82243 32.4925 10.0593 35.2181 12.9292 37.1357C15.7992 39.0534 19.1733 40.0769 22.625 40.0769C27.2519 40.0717 31.6878 38.2313 34.9596 34.9596C38.2313 31.6878 40.0717 27.2519 40.0769 22.625Z" fill="#CA4545"/>
</svg>
