<svg width="46" height="45" viewBox="0 0 46 45" fill="none" xmlns="http://www.w3.org/2000/svg">
<path d="M19.7056 30.5889L11.75 22.6314L14.4013 19.9802L19.7056 25.2827L30.3106 14.6758L32.9637 17.3289L19.7056 30.5889Z" fill="#2B4CFC"/>
<path fill-rule="evenodd" clip-rule="evenodd" d="M2.375 22.5C2.375 11.1094 11.6094 1.875 23 1.875C34.3906 1.875 43.625 11.1094 43.625 22.5C43.625 33.8906 34.3906 43.125 23 43.125C11.6094 43.125 2.375 33.8906 2.375 22.5ZM23 39.375C20.7839 39.375 18.5896 38.9385 16.5422 38.0905C14.4948 37.2424 12.6346 35.9994 11.0676 34.4324C9.50058 32.8654 8.25758 31.0052 7.40953 28.9578C6.56148 26.9104 6.125 24.7161 6.125 22.5C6.125 20.2839 6.56148 18.0896 7.40953 16.0422C8.25758 13.9948 9.50058 12.1346 11.0676 10.5676C12.6346 9.00058 14.4948 7.75758 16.5422 6.90953C18.5896 6.06148 20.7839 5.625 23 5.625C27.4755 5.625 31.7677 7.4029 34.9324 10.5676C38.0971 13.7322 39.875 18.0245 39.875 22.5C39.875 26.9755 38.0971 31.2677 34.9324 34.4324C31.7677 37.5971 27.4755 39.375 23 39.375Z" fill="#2B4CFC"/>
</svg>
