<svg width="20" height="21" viewBox="0 0 20 21" fill="cursor" xmlns="http://www.w3.org/2000/svg">
<path fill-rule="evenodd" clip-rule="evenodd" d="M16.8608 4.7868C16.9544 4.86696 17.0312 4.96477 17.0869 5.07463C17.1426 5.18449 17.1761 5.30425 17.1855 5.42707C17.1949 5.54989 17.18 5.67336 17.1417 5.79042C17.1034 5.90748 17.0423 6.01584 16.9621 6.1093L9.46208 14.8593C9.378 14.9574 9.27454 15.0371 9.1582 15.0933C9.04187 15.1495 8.91517 15.1811 8.78605 15.186C8.65694 15.1909 8.5282 15.1691 8.40792 15.1219C8.28764 15.0747 8.17841 15.0032 8.08708 14.9118L3.71208 10.5368C3.54139 10.3599 3.44701 10.123 3.44926 9.87724C3.45151 9.63143 3.55022 9.39634 3.72412 9.2226C3.89802 9.04886 4.13321 8.95038 4.37902 8.94836C4.62483 8.94634 4.8616 9.04094 5.03833 9.2118L8.69833 12.8706L15.5396 4.8893C15.7014 4.70078 15.9315 4.58423 16.1793 4.56524C16.427 4.54626 16.6721 4.62515 16.8608 4.7868Z" fill="#8C8C8C"/>
</svg>
