<svg width="31" height="30" viewBox="0 0 31 30" fill="none" xmlns="http://www.w3.org/2000/svg">
<path d="M4.25 26.25C3.5625 26.25 2.97417 26.0054 2.485 25.5163C1.99583 25.0271 1.75083 24.4383 1.75 23.75V7.5H4.25V23.75H25.5V26.25H4.25ZM9.25 21.25C8.5625 21.25 7.97417 21.0054 7.485 20.5163C6.99583 20.0271 6.75083 19.4383 6.75 18.75V5C6.75 4.3125 6.995 3.72417 7.485 3.235C7.975 2.74583 8.56333 2.50083 9.25 2.5H15.5L18 5H26.75C27.4375 5 28.0263 5.245 28.5163 5.735C29.0063 6.225 29.2508 6.81333 29.25 7.5V18.75C29.25 19.4375 29.0054 20.0263 28.5163 20.5163C28.0271 21.0063 27.4383 21.2508 26.75 21.25H9.25ZM9.25 18.75H26.75V7.5H16.9688L14.4688 5H9.25V18.75Z" fill="white"/>
</svg>
