<svg width="176" height="58" viewBox="0 0 176 58" fill="none" xmlns="http://www.w3.org/2000/svg">
<path fill-rule="evenodd" clip-rule="evenodd" d="M17.4583 17.9408C19.2411 17.9408 20.6864 16.4989 20.6864 14.7204C20.6864 12.9418 19.2411 11.5 17.4583 11.5C15.6754 11.5 14.2301 12.9418 14.2301 14.7204C14.2301 16.4989 15.6754 17.9408 17.4583 17.9408ZM13.1901 19.5505C12.3589 19.5505 11.6143 20.0647 11.3198 20.842L2.63156 43.7749C2.13582 45.0834 3.10255 46.4835 4.50183 46.4835H6.38131C6.41091 46.4835 6.44039 46.4828 6.46975 46.4815C6.55988 46.4851 6.65296 46.487 6.74911 46.487H11.6457C12.0741 46.487 12.2944 45.9918 11.9994 45.6812C11.354 45.0017 10.3285 43.9734 9.0934 42.9166L12.0611 34.8945C14.5386 34.6482 18.9866 34.8269 22.3005 38.4325C23.7611 40.3753 24.434 42.9041 24.7381 44.6047C24.9253 45.6514 25.8117 46.4835 26.875 46.4835H27.7696C27.9113 46.4944 28.062 46.5002 28.2221 46.5002H32.5942C33.1465 46.5002 33.6045 46.0467 33.4797 45.5087C33.1771 44.2039 32.2892 43.0924 31.0741 42.4062C30.4596 40.3601 29.4749 37.9191 27.9497 36.0172C26.1963 33.8307 24.161 32.4389 22.6675 31.6236C23.2038 31.2075 23.6527 30.7117 24.0139 30.1363C24.657 29.1173 24.9785 27.8955 24.9785 26.4709C24.9785 25.0557 24.6617 23.8292 24.0281 22.7914C23.4039 21.7441 22.5196 20.9422 21.3752 20.3855C20.2404 19.8289 18.9069 19.5505 17.3748 19.5505H13.1901ZM14.2454 28.9899H16.1406C16.8499 28.9899 17.4362 28.905 17.8996 28.7352C18.3631 28.556 18.7177 28.2823 18.9636 27.9144C19.219 27.537 19.3466 27.0558 19.3466 26.4709C19.3466 25.8765 19.219 25.3906 18.9636 25.0132C18.7177 24.6264 18.3583 24.3386 17.8855 24.1499C17.4126 23.9613 16.831 23.8669 16.1406 23.8669L14.2454 28.9899Z" fill="#2D37EB"/>
<path d="M48.1406 46V12.0625H60.8906C68.6719 12.0625 72.8438 16.4219 72.8438 22.8906C72.8438 27.5078 70.7344 30.9297 66.75 32.5469L74.0625 46H67.2656L60.6094 33.5781H54.2344V46H48.1406ZM54.2344 28.4688H59.9531C64.5469 28.4688 66.6094 26.5 66.6094 22.8906C66.6094 19.2812 64.5469 17.1719 59.9531 17.1719H54.2344V28.4688ZM108.375 29.0312C108.375 40 101.719 46.4688 92.8125 46.4688C83.9062 46.4688 77.25 39.9531 77.25 29.0312C77.25 18.0625 83.9062 11.5938 92.8125 11.5938C101.719 11.5938 108.375 18.0625 108.375 29.0312ZM102.234 29.0312C102.234 21.2969 98.3438 17.0781 92.8125 17.0781C87.2812 17.0781 83.3906 21.2969 83.3906 29.0312C83.3906 36.7656 87.2812 40.9844 92.8125 40.9844C98.3438 40.9844 102.234 36.7656 102.234 29.0312ZM116.297 46H109.781L121.734 12.0625H129.234L141.234 46H134.719L131.906 37.6094H119.109L116.297 46ZM120.75 32.6875H130.266L125.625 19H125.344L120.75 32.6875ZM156.797 46H145.266V12.0625H156.984C167.109 12.0625 173.25 18.4375 173.25 28.9844C173.25 39.5781 167.109 46 156.797 46ZM151.359 40.7031H156.469C163.547 40.7031 167.156 36.8125 167.156 28.9844C167.156 21.2031 163.547 17.3594 156.656 17.3594H151.359V40.7031Z" fill="#2D37EB"/>
</svg>
