<svg width="91" height="29" viewBox="0 0 91 29" fill="none" xmlns="http://www.w3.org/2000/svg">
<g clip-path="url(#clip0_4776_11951)">
<path fill-rule="evenodd" clip-rule="evenodd" d="M10.4573 6.32482C11.7021 6.32482 12.7111 5.3182 12.7111 4.07647C12.7111 2.83474 11.7021 1.82812 10.4573 1.82812C9.21261 1.82812 8.20357 2.83474 8.20357 4.07647C8.20357 5.3182 9.21261 6.32482 10.4573 6.32482ZM7.45587 7.44853C6.88845 7.44853 6.38018 7.79949 6.17915 8.33011L0.0898059 24.4031C-0.248604 25.2964 0.411323 26.2521 1.36652 26.2521H2.7453C2.76104 26.2521 2.77673 26.2518 2.79237 26.2513C2.85308 26.2536 2.9157 26.2548 2.9803 26.2548H6.41574C6.70816 26.2548 6.85854 25.9165 6.6573 25.7043C6.20747 25.2301 5.4867 24.5062 4.61704 23.7622L6.68906 18.1611C8.41879 17.9892 11.5242 18.1139 13.8379 20.6312C14.866 21.9987 15.3351 23.7821 15.5449 24.9696C15.6712 25.6844 16.2763 26.2521 17.0021 26.2521H17.6504C17.7514 26.2601 17.8588 26.2643 17.9732 26.2643H21.0411C21.4181 26.2643 21.7307 25.9549 21.6473 25.5872C21.4393 24.6693 20.8168 23.8871 19.9632 23.4054C19.5342 21.9769 18.8467 20.2727 17.7819 18.945C16.5578 17.4184 15.1368 16.4467 14.094 15.8775C14.4685 15.587 14.7819 15.2409 15.0341 14.8391C15.4831 14.1277 15.7076 13.2747 15.7076 12.2801C15.7076 11.292 15.4864 10.4357 15.044 9.71115C14.6082 8.97999 13.9908 8.4201 13.1919 8.03147C12.3995 7.64284 11.4685 7.44853 10.3989 7.44853H7.45587ZM8.21407 14.0388H9.53722C10.0324 14.0388 10.4418 13.9795 10.7653 13.8609C11.0889 13.7358 11.3365 13.5448 11.5082 13.2879C11.6864 13.0244 11.7756 12.6884 11.7756 12.2801C11.7756 11.8651 11.6864 11.5259 11.5082 11.2624C11.3365 10.9923 11.0856 10.7914 10.7554 10.6597C10.4253 10.5279 10.0192 10.4621 9.53722 10.4621L8.21407 14.0388Z" fill="#2D37EB"/>
</g>
<path d="M26.1445 23V6.03125H32.5195C36.4102 6.03125 38.4961 8.21094 38.4961 11.4453C38.4961 13.7539 37.4414 15.4648 35.4492 16.2734L39.1055 23H35.707L32.3789 16.7891H29.1914V23H26.1445ZM29.1914 14.2344H32.0508C34.3477 14.2344 35.3789 13.25 35.3789 11.4453C35.3789 9.64062 34.3477 8.58594 32.0508 8.58594H29.1914V14.2344ZM56.2617 14.5156C56.2617 20 52.9336 23.2344 48.4805 23.2344C44.0273 23.2344 40.6992 19.9766 40.6992 14.5156C40.6992 9.03125 44.0273 5.79688 48.4805 5.79688C52.9336 5.79688 56.2617 9.03125 56.2617 14.5156ZM53.1914 14.5156C53.1914 10.6484 51.2461 8.53906 48.4805 8.53906C45.7148 8.53906 43.7695 10.6484 43.7695 14.5156C43.7695 18.3828 45.7148 20.4922 48.4805 20.4922C51.2461 20.4922 53.1914 18.3828 53.1914 14.5156ZM60.2227 23H56.9648L62.9414 6.03125H66.6914L72.6914 23H69.4336L68.0273 18.8047H61.6289L60.2227 23ZM62.4492 16.3438H67.207L64.8867 9.5H64.7461L62.4492 16.3438ZM80.4727 23H74.707V6.03125H80.5664C85.6289 6.03125 88.6992 9.21875 88.6992 14.4922C88.6992 19.7891 85.6289 23 80.4727 23ZM77.7539 20.3516H80.3086C83.8477 20.3516 85.6523 18.4062 85.6523 14.4922C85.6523 10.6016 83.8477 8.67969 80.4023 8.67969H77.7539V20.3516Z" fill="white"/>
<defs>
<clipPath id="clip0_4776_11951">
<rect width="20.479" height="24.5749" fill="white" transform="translate(0 1.82812)"/>
</clipPath>
</defs>
</svg>
