<svg width="33" height="32" viewBox="0 0 33 32" fill="none" xmlns="http://www.w3.org/2000/svg">
<path d="M17.926 13.8807C18.7359 12.7491 19.1714 11.3923 19.1714 10.0007C19.1714 8.60908 18.7359 7.25235 17.926 6.1207C18.6844 5.60407 19.5817 5.32977 20.4993 5.33403C21.737 5.33403 22.924 5.8257 23.7992 6.70087C24.6744 7.57604 25.166 8.76302 25.166 10.0007C25.166 11.2384 24.6744 12.4254 23.7992 13.3005C22.924 14.1757 21.737 14.6674 20.4993 14.6674C19.5817 14.6716 18.6844 14.3973 17.926 13.8807ZM7.83268 10.0007C7.83268 9.07772 8.10638 8.17547 8.61916 7.40804C9.13194 6.64061 9.86077 6.04247 10.7135 5.68926C11.5662 5.33605 12.5045 5.24364 13.4098 5.4237C14.315 5.60377 15.1465 6.04822 15.7992 6.70087C16.4518 7.35351 16.8963 8.18503 17.0763 9.09028C17.2564 9.99552 17.164 10.9338 16.8108 11.7866C16.4576 12.6393 15.8594 13.3681 15.092 13.8809C14.3246 14.3937 13.4223 14.6674 12.4993 14.6674C11.2617 14.6674 10.0747 14.1757 9.19952 13.3005C8.32435 12.4254 7.83268 11.2384 7.83268 10.0007ZM10.4993 10.0007C10.4993 10.3963 10.6166 10.7829 10.8364 11.1118C11.0562 11.4407 11.3685 11.6971 11.734 11.8485C12.0994 11.9998 12.5016 12.0394 12.8895 11.9623C13.2775 11.8851 13.6339 11.6946 13.9136 11.4149C14.1933 11.1352 14.3837 10.7788 14.4609 10.3909C14.5381 10.0029 14.4985 9.60079 14.3471 9.23533C14.1957 8.86988 13.9394 8.55752 13.6105 8.33776C13.2816 8.118 12.8949 8.0007 12.4993 8.0007C11.9689 8.0007 11.4602 8.21141 11.0851 8.58649C10.7101 8.96156 10.4993 9.47027 10.4993 10.0007ZM21.8327 22.6674V25.334H3.16602V22.6674C3.16602 22.6674 3.16602 17.334 12.4993 17.334C21.8327 17.334 21.8327 22.6674 21.8327 22.6674ZM19.166 22.6674C18.9793 21.6274 17.3927 20.0007 12.4993 20.0007C7.60602 20.0007 5.92602 21.7474 5.83268 22.6674M21.766 17.334C22.5832 17.9697 23.2514 18.7765 23.7236 19.6979C24.1958 20.6192 24.4606 21.6328 24.4993 22.6674V25.334H29.8327V22.6674C29.8327 22.6674 29.8327 17.8274 21.7527 17.334H21.766Z" fill="white"/>
</svg>
