<svg width="32" height="32" viewBox="0 0 32 32" fill="none" xmlns="http://www.w3.org/2000/svg">
<path d="M10.666 18.667H21.3327V17.9337C21.3327 16.9559 20.8438 16.167 19.866 15.567C18.8882 14.967 17.5994 14.667 15.9994 14.667C14.3994 14.667 13.1105 14.967 12.1327 15.567C11.1549 16.167 10.666 16.9559 10.666 17.9337V18.667ZM15.9994 13.3337C16.7327 13.3337 17.3607 13.0728 17.8834 12.551C18.406 12.0292 18.6669 11.4012 18.666 10.667C18.6651 9.93277 18.4042 9.30521 17.8834 8.78433C17.3625 8.26344 16.7345 8.0021 15.9994 8.00033C15.2642 7.99855 14.6367 8.25988 14.1167 8.78433C13.5967 9.30877 13.3354 9.93633 13.3327 10.667C13.33 11.3977 13.5914 12.0257 14.1167 12.551C14.642 13.0763 15.2696 13.3372 15.9994 13.3337ZM7.99935 24.0003L4.93268 27.067C4.51046 27.4892 4.02691 27.5839 3.48202 27.351C2.93713 27.1181 2.66513 26.7012 2.66602 26.1003V5.33366C2.66602 4.60033 2.92735 3.97277 3.45002 3.45099C3.97268 2.92921 4.60024 2.66788 5.33268 2.66699H26.666C27.3994 2.66699 28.0274 2.92833 28.55 3.45099C29.0727 3.97366 29.3336 4.60121 29.3327 5.33366V21.3337C29.3327 22.067 29.0718 22.695 28.55 23.2177C28.0282 23.7403 27.4002 24.0012 26.666 24.0003H7.99935ZM6.86602 21.3337H26.666V5.33366H5.33268V22.8337L6.86602 21.3337Z" fill="#5E5E5E"/>
</svg>
