<svg width="32" height="32" viewBox="0 0 32 32" fill="none" xmlns="http://www.w3.org/2000/svg">
<path d="M16.0007 3.99956L16.526 2.77289C16.36 2.70173 16.1813 2.66504 16.0007 2.66504C15.82 2.66504 15.6413 2.70173 15.4753 2.77289L16.0007 3.99956ZM16.0007 27.9996L15.3393 29.1569C15.5407 29.2719 15.7687 29.3325 16.0007 29.3325C16.2326 29.3325 16.4606 29.2719 16.662 29.1569L16.0007 27.9996ZM15.4753 2.77423L6.94998 6.42623L8.00065 8.87956L16.526 5.22623L15.4753 2.77423ZM5.33398 8.87822V18.0249H8.00065V8.87822H5.33398ZM10.0367 26.1276L15.3393 29.1569L16.662 26.8422L11.3593 23.8116L10.0367 26.1276ZM16.662 29.1569L21.9647 26.1276L20.642 23.8116L15.3393 26.8422L16.662 29.1569ZM26.6673 18.0236V8.87956H24.0007V18.0262L26.6673 18.0236ZM25.0513 6.42756L16.526 2.77423L15.4753 5.22489L24.0007 8.87956L25.0513 6.42756ZM26.6673 8.87956C26.6673 8.35777 26.5141 7.84746 26.2269 7.41185C25.9396 6.97624 25.5309 6.63314 25.0513 6.42756L24.0007 8.87956H26.6673ZM21.9647 26.1276C23.3935 25.3111 24.5811 24.1326 25.4069 22.7092C26.2328 21.2857 26.6676 19.6692 26.6673 18.0236H24.0007C24.0005 19.1989 23.6896 20.3533 23.0996 21.3697C22.5095 22.3862 21.6612 23.2286 20.6407 23.8116L21.9647 26.1276ZM5.33398 18.0236C5.33391 19.669 5.76885 21.2852 6.59471 22.7084C7.42057 24.1316 8.608 25.3112 10.0367 26.1276L11.3593 23.8116C10.3394 23.2287 9.49162 22.3866 8.90182 21.3707C8.31201 20.3547 8.00113 19.201 8.00065 18.0262L5.33398 18.0236ZM6.94998 6.42623C6.47019 6.6319 6.06132 6.97521 5.77406 7.41107C5.4868 7.84694 5.33378 8.35754 5.33398 8.87956H8.00065L6.94998 6.42623Z" fill="#CA4545"/>
<path d="M13.334 13.333L18.6673 18.6663M13.334 18.6663L18.6673 13.333" stroke="#CA4545" stroke-width="2" stroke-linecap="round" stroke-linejoin="round"/>
</svg>
