<svg width="52" height="58" viewBox="0 0 52 58" fill="none" xmlns="http://www.w3.org/2000/svg">
<path fill-rule="evenodd" clip-rule="evenodd" d="M25.4897 10.6734C28.4085 10.6734 30.7746 8.28404 30.7746 5.33668C30.7746 2.38931 28.4085 0 25.4897 0C22.571 0 20.2048 2.38931 20.2048 5.33668C20.2048 8.28404 22.571 10.6734 25.4897 10.6734ZM17.1642 13.3416C16.6091 13.3416 16.1124 13.6861 15.9178 14.2059L0.209181 56.1763C-0.116426 57.0462 0.526757 57.9737 1.45565 57.9737H6.6171C6.87146 57.9911 7.14024 58.0002 7.42425 58.0002H17.184C17.4708 58.0002 17.6182 57.6663 17.4225 57.4567C16.5165 56.4862 14.4442 54.3454 11.7834 52.0956L16.6538 38.769C20.7099 38.3608 27.9918 38.657 33.4172 44.632C36.4222 48.6778 37.3908 54.2573 37.6835 56.7197C37.7671 57.4227 38.3564 57.9737 39.0643 57.9737H42.39C42.6164 57.9909 42.8566 58 43.1113 58H51.2402C51.6077 58 51.9076 57.7009 51.8745 57.3349C51.6413 54.7542 50.0636 52.5205 47.7804 51.2155C46.7743 47.825 45.1623 43.7807 42.6658 40.6295C39.7952 37.0061 36.4632 34.6996 34.018 33.3485C34.8961 32.659 35.6309 31.8375 36.2222 30.8838C37.2751 29.1952 37.8015 27.1705 37.8015 24.8097C37.8015 22.4645 37.2828 20.4319 36.2455 18.7121C35.2236 16.9767 33.7759 15.6477 31.9024 14.7252C30.0445 13.8028 27.8614 13.3416 25.3531 13.3416H17.1642ZM20.2298 28.9842H23.3325C24.4938 28.9842 25.4537 28.8435 26.2124 28.562C26.9711 28.265 27.5517 27.8116 27.9543 27.2018C28.3723 26.5764 28.5813 25.779 28.5813 24.8097C28.5813 23.8247 28.3723 23.0195 27.9543 22.3941C27.5517 21.7531 26.9633 21.2762 26.1892 20.9635C25.415 20.6508 24.4628 20.4945 23.3325 20.4945L20.2298 28.9842Z" fill="#2D37EB"/>
</svg>
