<svg width="31" height="30" viewBox="0 0 31 30" fill="none" xmlns="http://www.w3.org/2000/svg">
<path d="M18 27.5V22.5C18 21.837 17.7366 21.2011 17.2678 20.7322C16.7989 20.2634 16.163 20 15.5 20C14.837 20 14.2011 20.2634 13.7322 20.7322C13.2634 21.2011 13 21.837 13 22.5V27.5" stroke="white" stroke-width="2.5" stroke-linecap="round" stroke-linejoin="round"/>
<path d="M23 12.5L28 15V25C28 25.663 27.7366 26.2989 27.2678 26.7678C26.7989 27.2366 26.163 27.5 25.5 27.5H5.5C4.83696 27.5 4.20107 27.2366 3.73223 26.7678C3.26339 26.2989 3 25.663 3 25V15L8 12.5M23 6.25V27.5M5.5 7.5L15.5 2.5L25.5 7.5M8 6.25V27.5" stroke="white" stroke-width="2.5" stroke-linecap="round" stroke-linejoin="round"/>
<path d="M15.5 13.75C16.8807 13.75 18 12.6307 18 11.25C18 9.86929 16.8807 8.75 15.5 8.75C14.1193 8.75 13 9.86929 13 11.25C13 12.6307 14.1193 13.75 15.5 13.75Z" stroke="white" stroke-width="2.5" stroke-linecap="round" stroke-linejoin="round"/>
</svg>
